<?xml version="1.0" encoding="UTF-8"?><svg id="a" xmlns="http://www.w3.org/2000/svg" viewBox="0 0 2969.85 1836.46"><defs><style>.b{fill:#fff;}.c{fill:none;stroke:#000;stroke-width:4.72px;}</style></defs><rect class="b" width="2969.85" height="1836.46"/><path class="c" d="M45.54,1486.02c68.69-1.01,137.38-2.02,171.21-6.13,33.83-4.11,32.84-11.04,35.18-34.52,2.34-23.47,6.75-54.31,.18-79.56-6.57-25.25-24.75-40.4-40.91-84.35-16.16-43.94-30.3-116.67-45.89-220.76-15.59-104.09-32.63-239.53-41.86-317.96-9.23-78.44-10.67-99.87-3.15-112.96,7.51-13.09,23.95-17.84,38.6-10.7,14.64,7.14,27.48,26.18,69.26,112.49,41.78,86.31,112.49,239.88,154.28,331.3,41.79,91.43,54.65,120.71,76.43,144.64,21.79,23.93,52.5,42.5,96.79,61.43,44.28,18.93,102.14,38.22,149.84,57.11,47.69,18.9,94.76,42.12,117.98,69.62,23.21,27.5,27.34,61.63,27.26,89.06-.08,27.43-4.36,48.14-21.38,57.42-17.02,9.29-51.6,6.79-63.64,29.87-12.04,23.09-3.96,71.57,4.12,120.06l-82.8-19.96c-82.8-19.96-27.6-6.65-111.98-38.66-84.39-32.01-197.96-82.73-254.75-124.16-56.78-41.43-56.78-73.57-56.73-99.65,.05-26.08,.11-37.98,42.25-29.41,42.14,8.57,126.35,41.68,202.64,71.89,76.28,30.21,160.73,63.96,209.66,77.53,48.93,13.57,70.38,10.17,83.25,.62,12.87-9.55,17.15-25.27,22.59-49.84,5.44-24.57,12.02-57.99-19.05-80.13-31.07-22.14-99.8-33.01-177.74-61.65-77.94-28.65-165.08-75.08-229.37-143.29-64.28-68.21-105.71-158.21-143.93-243.93-38.21-85.72-73.21-167.15-88.21-226.33-14.99-59.19-9.97-96.14,12.53-117.92,22.5-21.79,62.48-28.41,167.11-49.93,104.63-21.53,273.92-57.96,364.64-76.53,90.72-18.57,102.86-19.28,104.65-13.21,1.78,6.07-6.79,18.93-8.58,28.93-1.79,10,3.21,17.14,6.78,33.93,3.58,16.79,5.72,43.21-.71,65.36-6.43,22.14-21.43,40-30,68.21-8.58,28.21-10.72,66.79-7.86,94.29,2.86,27.5,10.72,43.93,18.22,53.57,7.5,9.65,14.65,12.5,17.15,30s.35,49.65,3.21,78.93c2.86,29.28,10.72,55.72,19.65,73.22,8.93,17.5,18.93,26.07,22.5,39.64,3.57,13.57,.72,32.14,2.5,56.79,1.78,24.64,8.22,55.36,15.35,77.5,7.15,22.14,15,35.71,27.86,49.28,12.85,13.57,30.71,27.14,59.64,37.14,28.93,10,68.93,16.43,131.43,15,62.5-1.42,147.5-10.71,234.65-23.21,87.14-12.5,176.43-28.21,223.94-35.53,47.51-7.31,54.23-6.04,62.78-8.35,8.55-2.31,19.41-8.12,27.11-24.16,7.7-16.04,12.25-42.3,17.55-61.37,5.3-19.07,11.36-30.93,10.86-22.6s-7.57,36.87-15.03,56.69c-7.45,19.82-15.28,30.94-10.03,19.41,5.25-11.52,23.79-46.06,36.04-65,12.25-18.94,18.31-22.48,13.39-8.71-4.92,13.76-20.84,44.83-31.19,66.42-10.35,21.59-15.15,33.71-12.75,34.98,2.4,1.26,12-8.33,17.67-20.71,5.68-12.38,7.45-27.53,5.68-22.22-1.77,5.3-7.07,31.06-11.87,44.44-4.8,13.39-9.09,14.4-6.18,21.09,2.9,6.69,13,19.07,18.06,25.25,5.05,6.19,5.05,30.43,5.81,31.7,.76,1.26,2.27,3.79,2.65,9.09,.38,5.31-.38,13.39-3.41,15.03-3.03,1.64-8.34-3.16-21.21-8.71-12.88-5.56-33.34-11.87-53.54-12.25-20.2-.38-40.15,5.18-52.27,9.22-12.12,4.04-16.41,6.57-18.31,2.14-1.9-4.42-1.39-15.78-.5-22.31,.89-6.53,2.64-8.87,2.9-16.7,.25-7.83-.76-21.47-.63-21.6,.13-.12,1.39,13.26,5.18,19.32,3.79,6.06,10.1,4.8,25.38,3.66,15.28-1.14,39.52-2.15,57.96-1.77,18.44,.38,31.06,2.15,38.39,6.69,7.32,4.55,9.34,11.87,9.22,21.34-.13,9.47-2.4,21.09-6.06,40.91-3.66,19.83-8.71,47.85-10.86,70.84-2.15,22.98-1.39,40.91,1.2,53.07,2.59,12.16,7.26,18.9,9.66,21.17,2.4,2.27,2.65,.25,2.02,4.41-.63,4.16-2.15,14.52-9.09,21.09-6.95,6.57-19.32,9.34-27.53,8.71-8.21-.63-12.25-4.67-20.71-11.24-8.46-6.57-21.34-15.66-34.22-20.96-12.88-5.3-25.76-6.82-35.23-2.02-9.47,4.8-15.53,15.91-19.57,28.28-4.04,12.38-6.06,26.01-10.1,39.02-4.04,13-10.1,25.38-5.55,34.72,4.54,9.34,19.69,15.66,40.53,20.96,20.83,5.31,47.35,9.6,67.18,12.98,19.83,3.39,33.46,5.96,48.86,6.34,15.41,.38,32.83-1.39,47.73-4.8,14.9-3.41,27.27-8.46,36.75-12.88,9.47-4.42,16.04-8.21,18.18-15.02,2.15-6.82-.12-16.67-4.29-24.12-4.16-7.45-10.23-12.5-16.29-15.66-6.06-3.16-12.12-4.42-18.69-8.71-6.57-4.29-13.64-11.62-19.32-20.46-5.68-8.84-9.98-19.19-15.79-28.91-5.81-9.72-13.13-18.82-17.17-21.34-4.04-2.53-4.8,1.52-3.79,5.18,1.01,3.66,3.79,6.95,4.55,13.26,.76,6.32-.51,15.66-5.18,23.99-4.67,8.34-12.75,15.66-25.5,18.81-12.75,3.16-30.18,2.15-38.39-2.65-8.21-4.8-7.2-13.39-7.45-15.53-.25-2.15-1.77,2.14-10.73,3.03-8.97,.89-25.38-1.64-35.6-4.04-10.23-2.4-14.27-4.67-12.75-13.89,1.52-9.22,8.59-25.38,9.47-64.39,.88-39.02-4.42-100.89-4.55-114.91-.12-14.02,4.92,19.82,4.45,36.19-.47,16.38-6.46,15.28-97.95,37.63-91.48,22.35-268.45,68.14-379.43,95.68-110.98,27.54-155.98,36.83-183.4,15.72-27.41-21.1-34.42-57.88-59.06-97.52-24.65-39.64-65.52-74.79-124.52-102.73-59.01-27.93-136.15-48.64-150.8-63.29-14.64-14.64,33.21-23.22,53.93-27.85,20.72-4.64,14.28-5.36,7.5-21.08-6.78-15.71-13.93-46.42-33.57-90.35-19.65-43.93-51.78-101.07-75-149.28-23.22-48.22-37.5-87.5-13.58-118.57,23.93-31.07,86.08-53.93,131.43-68.21,45.36-14.29,73.93-20,93.22-11.43,19.28,8.57,29.28,31.43,42.85,60.35,13.58,28.93,30.72,63.93,45.72,105.36,15,41.43,27.86,89.28,42.15,136.07,14.28,46.79,30,92.5,23.21,115.72-6.78,23.21-36.07,23.93-70.36,23.21-34.29-.71-73.57-2.86-100-2.15-26.42,.72-40,4.29-60,7.86-20,3.57-46.42,7.14-71.07-7.14-24.65-14.29-47.5-46.43-65.72-90-18.21-43.57-31.79-98.57-38.57-139.29-6.79-40.72-6.79-67.15-5-87.86,1.79-20.71,5.36-35.71,26.78-54.64,21.43-18.93,60.72-41.78,108.22-51.43,47.5-9.64,103.21-6.07,133.54,23.22,30.32,29.28,35.39,85.71,47.18,116.78,11.79,31.08,30.35,37.5,37.85,23.21,7.5-14.28,3.93-49.28,3.57-89.64-.35-40.36,2.5-86.07,5.36-118.21,2.85-32.15,5.71-50.71,20.35-76.43,14.65-25.71,41.08-58.57,59.29-83.21,18.21-24.64,28.21-41.07,42.14-66.79,13.93-25.71,31.78-60.71,43.57-86.78,11.78-26.07,17.5-43.22,24.64-55.72,7.14-12.5,15.71-20.36,26.07-20.71,10.36-.35,22.5,6.79,28.57,19.29,6.07,12.5,6.07,30.36,8.58,27.86,2.5-2.5,7.5-25.36,11.42-40.36,3.93-15,6.79-22.14,15.36-28.93,8.57-6.79,22.86-13.21,38.94-18.15,16.08-4.93,35.34-8.64,44.99-14,9.64-5.36,10.35-12.5-2.86-27.5-13.22-15-40.36-37.85-69.64-51.07-29.29-13.21-60.71-16.79-88.93-11.79-28.21,5-53.21,18.57-71.43,35.35-18.21,16.79-29.64,36.79-40.71,57.5-11.07,20.72-21.79,42.14-27.85,58.57-6.07,16.43-7.5,27.86,7.14,30,14.65,2.15,45.36-5,62.86-7.5,17.5-2.5,21.78-.35,20.71,5-1.07,5.36-7.5,13.93-20.36,19.29-12.85,5.36-32.14,7.5-37.85,2.86-5.72-4.65,2.14-16.07,16.07-21.79,13.93-5.71,33.93-5.71,32.15,13.92-1.78,19.64-25.36,58.93-41.43,89.65-16.07,30.72-24.64,52.85-28.57,66.07-3.93,13.21-3.21,17.5,9.64,2.5,12.86-15,37.86-49.28,45.36-75s-2.5-42.85-16.78-51.07c-14.29-8.21-32.86-7.5-45,2.5-12.15,10-17.86,29.29-28.59,40.64-10.73,11.35-27.84,15.07-31.77,25.79-3.93,10.71,4.65,28.57,6.43,50,1.78,21.42-3.22,46.43-10.36,75.35-7.14,28.93-16.42,61.79-23.57,92.15-7.14,30.35-12.14,58.21-7.85,73.21,4.29,15,17.85,17.14,33.22-13.21,15.35-30.36,32.5-93.21,50.17-136.66,17.67-43.44,35.18-66.56,52.68-72.27,17.5-5.71,34.65,6.43,54.65,17.85,20,11.43,42.85,22.15,55.35,23.58,12.5,1.43,14.65-6.43,11.43-15.71-3.21-9.29-11.78-20-18.93-20.72-7.14-.71-12.85,8.57-12.5,7.5,.36-1.07,6.79-12.5,14.65-27.5,7.85-15,17.14-33.57,18.35-50.42,1.21-16.85-6.21-33.15-14.42-51.01-8.21-17.85-17.5-37.85-20.71-52.85-3.21-15-.35-25,5.36-30.31,5.72-5.3,17.14-6.12,24.64,1.38,7.5,7.5,12.5,23.21,11.07,40-1.43,16.79-9.28,34.64-10.36,51.07-1.07,16.43,4.65,31.43,14.65,43.58,10,12.14,24.29,21.42,37.79,24.39,13.51,2.97,27.92-.82,40.06-11.89,12.15-11.07,24.2-31.97,28.89-42.59,4.69-10.62,4.69-17.05,7.23-20.86,2.54-3.81,8.89-6.19,12.7-9.8,3.81-3.62,6.19-9.96,4.76-18.53-1.43-8.57-6.43-20-7.86-30-1.43-10,.71-18.57,3.21-33.57,2.5-15,5.35-36.43,4.65-48.93-.71-12.5-5-16.07-6.83-11.34-1.83,4.73-1.21,17.77-.49,34.19,.72,16.43,1.52,36.25,1.92,47.95,.4,11.7,.4,15.27,1.83,21.34,1.43,6.07,4.29,14.65,57.86,12.15,53.57-2.5,157.85-16.07,220-22.15,62.14-6.07,82.14-4.64,98.92,16.43,16.79,21.07,30.36,61.78,46.08,111.78,15.71,50,33.57,109.29,43.21,142.85,9.64,33.58,11.07,41.43,8.57,57.86-2.5,16.43-8.93,41.43-16.43,78.21-7.5,36.79-16.07,85.35-21.61,111.21-5.54,25.85-8.75,29.86-18.39,32-9.64,2.14-26.07,2.86-45-1.43-18.93-4.29-40.35-13.57-66.79-17.5-26.43-3.93-57.85-2.5-83.57-1.79-25.72,.72-45.72,.72-69.64-1.43-23.93-2.15-51.79-6.43-80.36-10.72-28.58-4.28-57.86-8.57-71.07-29.64-13.21-21.07-10.36-58.93-16.07-93.21-5.72-34.28-20-65-36.79-97.5-16.79-32.5-36.07-66.79-49.29-92.15-13.21-25.35-20.36-41.79-18.75-45,1.61-3.21,11.97,6.79,21.97,24.65,10,17.85,19.64,43.57,27.67,63.92,8.04,20.36,14.46,35.36,17.68,42.86q3.21,7.5,3.21,9.64c0,2.15,0,6.43-2.32,18.04-2.33,11.6-6.97,30.53-20.54,25.89-13.57-4.64-36.07-32.85-55.36-41.25-19.29-8.39-35.36,3.04-22.68,31.79,12.68,28.75,54.1,74.82,70.71,99.11,16.61,24.29,8.4,26.79-18.03,29.11-26.43,2.32-71.07,4.46-83.93,22.32-12.85,17.86,6.08,51.43,26.61,81.43,20.54,30,42.68,56.43,59.82,77.5,17.14,21.07,29.28,36.78,39.28,49.65,10,12.85,17.86,22.85,6.43,34.64s-42.14,25.36-81.43,39.29c-39.28,13.93-87.14,28.21-113.92,33.58-26.79,5.35-32.5,1.78-14.65-3.93,17.86-5.72,59.28-13.57,96.43-23.57,37.14-10,70-22.14,89.64-35.71,19.64-13.57,26.07-28.57,40-35.36,13.93-6.79,35.36-5.36,76.43-4.64,41.07,.72,101.79,.72,148.21-3.21,46.43-3.93,78.57-11.79,99.29-11.79s30,7.86,43.21,10c13.22,2.14,30.35-1.43,71.79-8.93,41.43-7.5,107.15-18.93,150.71-27.5,43.57-8.57,65-14.29,76.43-19.64,11.42-5.36,12.85-10.36,15-22.86,2.14-12.5,5-32.5,13.79-79.31,8.79-46.81,24.07-123.19,25.85-162.83,1.78-39.64-9.64-43.93-45.35-57.86-35.72-13.93-95.72-37.5-125-49.28-29.29-11.79-27.86-11.79-37.85,36.4-10,48.19-31.43,144.67-38.21,193.54-6.78,48.87,2.49,50.41,34.27,64.34,31.79,13.93,86.79,40.36,107.82,55.96,21.03,15.6,6.83,20.83-20.34,26.52-27.17,5.68-67.93,12.05-95.64,17.39-27.71,5.33-42.35,9.63-60.92,13.27-18.56,3.65-41.54,6.71-55.81,8.48-14.27,1.77-20.07,2.27-24.75,.88-4.68-1.39-8.21-4.67,1.01-7.58,9.22-2.9,31.19-5.43,50.64-8.59,19.45-3.16,36.36-6.94,47.98-10.86,11.62-3.91,17.93-7.95,29.67-9.47,11.74-1.52,28.92-.5,38.64-1.26,9.72-.76,12-3.28,13.26-6.06,1.26-2.78,1.52-5.81-3.28-7.57-4.8-1.77-14.65-2.27-26.65-3.03-12-.76-26.14-1.77-31.69-2.65-5.56-.88-2.52-1.64,6.06-1.26,8.58,.38,22.73,1.9,33.34,3.79,10.6,1.89,17.67,4.17,21.84,3.92,4.17-.25,5.43-3.03,1.77-6.57-3.66-3.53-12.25-7.83-21.97-12.12-9.72-4.29-20.58-8.59-30.18-9.98-9.59-1.39-17.93,.13-20.07,.88-2.15,.76,1.9,.76,7.95,.25,6.06-.5,14.15-1.52,21.84,0,7.7,1.52,15.03,5.56,17.93,5.43,2.91-.13,1.39-4.42-3.03-9.22-4.42-4.8-11.75-10.1-18.94-12.88-7.2-2.78-14.27-3.03-20.46-2.02-6.19,1.01-11.49,3.28-14.02,3.91-2.52,.63-2.27-.38,1.77-1.74,4.04-1.36,12.38-3.18,12-5.2-.38-2.02-9.22-4.29-16.42-7.07-7.19-2.78-12.75-6.06-17.17-8.34-4.42-2.27-7.7-3.54-14.52-1.52-6.82,2.02-17.17,7.32-25.51,13.13-8.33,5.81-14.65,12.12-26.14,18.56-11.49,6.44-28.16,13-65.41,16.41-37.25,3.41-95.08,3.66-143.31,1.64-48.23-2.02-86.88-6.31-109.48-14.52-22.6-8.21-29.17-20.33-42.43-41.16-13.26-20.83-33.21-50.38-44.14-67.07-10.93-16.69-13.05-20.93-7.38-16.9,5.68,4.04,19.07,16.16,29.42,27.65,10.35,11.49,17.68,22.35,23.11,31.06,5.43,8.72,8.96,15.28,8.21,16.67-.76,1.39-5.81-2.4-5.31,2.02,.5,4.42,6.57,17.05,12.38,26.27,5.81,9.22,11.36,15.02,20.96,18.94,9.6,3.91,23.23,5.93,27.15,.5,3.91-5.43-1.9-18.31-8.96-33.08-7.07-14.77-15.41-31.44-20.08-38.01-4.67-6.57-5.68-3.03-.25,7.45,5.43,10.48,17.3,27.9,24.49,37.62,7.2,9.72,9.72,11.74,22.85,12.38,13.13,.63,36.87-.13,55.05-1.77,18.18-1.64,30.81-4.17,40.79-5.18,9.97-1.01,17.3-.5,23.26,.84,5.96,1.34,10.96,3.71,10.45,5.73-.5,2.02-6.32,3.78-15.16,5.3-8.84,1.51-20.71,2.78-22.98,6.06-2.27,3.29,5.05,8.59,11.61,12.12,6.57,3.53,12.38,5.3,11.62,3.41-.76-1.89-8.08-7.45-8.19-11.45-.11-4,7.43-6.6,14.88-8.12,7.45-1.52,15.03-2.02,26.01-1.64,10.98,.38,25.38,1.64,37.88,1.64s23.1-1.27,29.67-3.54c6.57-2.27,9.09-5.55,16.92-6.31,7.83-.76,20.96,1.01,30.81,1.51,9.85,.5,16.41-.25,21.21-2.78,4.8-2.53,7.83-6.82,7.45-10.23-.38-3.41-4.17-5.93-9.98-6.95-5.81-1.01-13.64-.5-22.35-1.52-8.71-1.01-18.31-3.54-27.91-6.06m0,0c2.62,.09,5.25,.18,9.5,.8,4.26,.62,10.15,1.79,17.12,2.63,6.96,.85,15,1.38,21.2,2.23,6.21,.85,10.58,2.01,13.84,3.98,3.26,1.96,5.4,4.73,11.03,5.58,5.62,.85,14.73-.22,25.98-.89,11.25-.67,24.65-.94,32.01-1.96,7.37-1.03,8.7-2.81,7.06-4.33-1.65-1.51-6.3-2.76-8.8-3.12-2.5-.35-2.85,.18-2.5-.45,.36-.62,1.43-2.41,.27-3.57-1.16-1.16-4.55-1.7-7.28-2.15-2.72-.45-4.78-.8-3.53-1.47,1.25-.67,5.81-1.65,9.26-2.01,3.45-.35,5.82-.08,22.39,7.38,16.58,7.46,47.4,22.11,72.13,33.68,24.74,11.57,43.66,20.2,58.06,25.01,14.4,4.82,24.4,5.89,32.43,7.32,8.04,1.43,14.11,3.22,11.07,6.43-3.04,3.21-15.18,7.85-31.07,11.43-15.9,3.57-35.54,6.07-42.14,11.42-6.61,5.36-.18,13.58,8.75,29.83,8.93,16.25,20.36,40.54,30.01,53.33,9.65,12.8,18.92,14.34,53.56,10.42,34.64-3.93,95.36-13.21,139.29-20.36,43.93-7.14,71.07-12.14,85-22.85,13.93-10.72,14.64-27.14-1.79-48.57-16.43-21.43-50-47.86-84.29-63.21-34.29-15.36-69.29-19.65-77.5-17.5-8.21,2.14,10.35,10.71,38.57,18.21,28.21,7.5,66.07,13.93,92.14,24.29,26.07,10.35,40.36,24.64,47.5,31.78,7.15,7.14,7.15,105.71,2.09,122.04-5.06,16.33-15.17,48.99-22.76,68.6-7.58,19.61-12.63,26.18-13.65,43.36-1.01,17.17,2.02,44.95-2.78,57.07-4.8,12.13-17.43,8.59-33.08,1.77-15.66-6.82-34.35-16.92-44.95-23.23-10.61-6.31-14.14-9.85-18.43-12.62-4.29-2.78-9.85-5.3-13.3-6.63-3.46-1.33-4.81-1.46-9.42-6.53-4.61-5.07-12.46-15.06-28.71-33.1-16.25-18.04-40.89-44.11-55.8-62.24-14.91-18.13-20.09-28.31-15.63-24.64,4.46,3.66,18.57,21.16,32.41,38.13,13.84,16.96,27.41,33.39,39.29,43.48s22.06,13.84,40.44,11.34c18.4-2.5,45-11.25,63.31-17.32,18.3-6.08,28.3-9.47,27.95-8.21-.36,1.25-11.07,7.14-32.95,13.66-21.88,6.52-54.91,13.66-68.39,21.61-13.48,7.95-7.41,16.7-.89,23.39,6.52,6.7,13.48,11.34,19.11,15.35,5.62,4.02,9.91,7.41,13.75,12.95,3.84,5.53,7.23,13.21,4.65,21.42-2.59,8.22-11.16,16.97-27.95,31.52-16.79,14.56-41.78,34.91-56.61,45.26-14.82,10.36-19.47,10.71-25.71,6.96-6.25-3.75-14.11-11.6-16.25-16.42-2.14-4.83,1.43-6.61-1.16-11.79-2.59-5.18-11.34-13.75-32.68-31.25-21.33-17.5-55.27-43.92-76.69-64.46-21.43-20.54-30.35-35.18-30.18-38.84,.18-3.66,9.46,3.66,22.5,17.5,13.04,13.84,29.83,34.19,51.08,54.55,21.25,20.36,46.96,40.72,66.88,48.67,19.91,7.94,34.01,3.48,50.53-8.58,16.52-12.05,35.45-31.69,44.91-41.51,9.46-9.83,15.9-16.25,23.75-5.9,7.86,10.36,23.57,31.07,50.36,55,26.79,23.93,64.65,51.07,85,70,20.36,18.93,23.22,29.65,20,40.18-3.21,10.54-12.5,20.89-20.53,29.82-8.04,8.93-14.82,16.43-23.57,20.18s-19.47,3.75-31.25,6.79-24.64,9.11-31.25,6.25c-6.6-2.86-6.96-14.65-6.78-24.11,.18-9.46,.89-16.61-8.93-27.32-9.82-10.71-30.18-25-50.18-39.1-20-14.11-39.64-28.04-45-32.68-5.35-4.64,3.58,0,26.08,16.25,22.5,16.25,58.57,44.11,80,61.61,21.43,17.5,28.22,24.64,31.97,29.11,3.75,4.46,4.46,6.25,2.32,10.53-2.15,4.28-7.15,11.07-13.93,14.11-6.78,3.04-15.35,2.32-16.07,6.43-.72,4.11,6.43,13.03,13.57,20.36,7.15,7.32,14.28,13.04,27.5,17.86,13.21,4.82,32.5,8.75,52.32,10,19.82,1.25,40.18-.18,76.78-6.97,36.61-6.78,89.47-18.92,123.04-34.1,33.57-15.18,47.85-33.4,55.89-51.43,8.03-18.04,9.82-35.89,2.68-47.14-7.14-11.25-23.22-15.89-45-16.25-21.78-.36-49.28,3.57-76.96,3.39-27.68-.18-55.54-4.47-75.18-9.1-19.64-4.65-31.07-9.64-37.5-9.11-6.43,.54-7.85,6.61-5.53,10.72,2.32,4.11,8.4,6.25,15.71,8.21,7.32,1.97,15.9,3.75,40.36,6.96,24.46,3.22,64.82,7.85,95.89,8.75,31.07,.89,52.86-1.96,65.18,1.07,12.32,3.03,15.18,11.96,15.35,23.03,.18,11.08-2.32,24.28,10.36,34.11,12.68,9.82,40.54,16.25,141.47,17.77,100.93,1.52,274.95-1.86,448.96-5.24"/></svg>