<?xml version="1.0" encoding="UTF-8"?><svg class="b" id="a" xmlns="http://www.w3.org/2000/svg" viewBox="0 0 2950.47 3610.49"><path class="c" d="M1846.66,3610.49h0c-2.42,0-4.4-1.82-4.71-4.33-.25-2.02,.77-5.95,3.7-10.79,.33-1.72,.65-3.79,.96-6.27,1.96-15.95,2.05-31.41,.76-46.72-.31,6.01-1.93,11.03-5.23,14.91-6.32,7.43-17.77,9.34-34.99,5.84-31.28-6.36-51.5-5.58-66.26-5-16.51,.64-28.44,1.11-42.06-9.21-12.56-9.51-26.66-27.93-52.02-67.96-6.66-10.51-10.48-26.34-12.86-40.01-3.62,43.85,4.71,94.79,32.74,127.05,16.18,18.63,37.17,28.92,62.54,30.71,5.37,.01,10.76,.02,16.2,.03,2.43,0,4.42,1.94,4.49,4.37,.07,2.43-1.8,4.48-4.22,4.62-5.83,.36-11.49,.35-16.95-.03-452.83-.92-679.21-1.37-679.21-1.37l.02-9s214.25,.43,642.74,1.3c-12.19-5.68-23.01-13.93-32.4-24.73-35.72-41.12-41.39-110.15-31.16-160.33,.75-3.69,2.53-5.53,5.28-5.43,4.05,.14,4.78,4.32,5.17,6.56,.33,1.89,.67,4.45,1.1,7.69,1.86,13.93,5.32,39.86,14.12,53.75,47.21,74.51,54.68,74.21,86.13,72.99,15.22-.59,36.06-1.4,68.4,5.18,13.53,2.75,22.39,1.79,26.34-2.85,9.09-10.69-2.99-42.62-15.78-76.42-12.67-33.47-27.03-71.41-27.03-103.25,0-16.24-2.76-26.16-8.22-29.49-8.53-5.2-26.42,3.99-45.36,13.72-18.49,9.5-39.44,20.27-60.19,22.82-42.46,5.22-46.89-1.19-55.68-24.22-2.17-5.68-4.86-12.75-8.95-20.94-.5-1-.6-2.14-.31-3.19,.52-7.11-5.94-74.77-12.18-140.23-7.68-80.56-15.62-163.86-15.62-183.38,0-32.77,1.1-59.49,2.17-85.34,1.62-39.18,3.15-76.2,.66-129.44-.78-16.61,2.66-21.68,5.99-26.58,2.72-4.01,5.3-7.81,5.32-21.57-1.4-20.07,5.88-63.88,14.31-114.59,10.01-60.23,21.35-128.5,19.65-168.26-1.03-24.08,3.92-42.3,8.71-59.93,7.66-28.17,14.89-54.78-4.82-102.62-.57-1.38-.61-1.46,.19-21.16,1.8-44.71,6.02-149.41-6.01-190.72-26.8-91.98-7.74-171.35,15.67-191.04,6.33-5.33,13.24-6.59,19.45-3.55,18.16,8.89,26.64,52.24,23.89,122.06-.45,11.44,1.41,18.83,5.11,20.25,5.76,2.22,20.74-6.52,41.23-31.03,14.34-17.16,28.28-38.46,37.28-56.97,9.26-19.04,12.68-33.88,9.15-39.69-30.59-50.33-38.41-104.9-45.96-157.67-6.97-48.66-14.17-98.98-39.27-145.95-9.35-17.5-14.93-35.95-19.85-52.23-6.76-22.37-12.11-40.04-23.46-43.94-8.7-2.99-21.92,1.9-40.4,14.96-10.44,7.38-20.97,8.6-30.26,9.68-8.95,1.04-16.03,1.87-20.75,7.87-6.25,7.95-8.64,25.42-7.23,53.93,.51,1.55,1,3.06,1.49,4.55,6.43,19.65,11.99,36.63,13.98,44.36,3.16,12.3,16.83,52.68,25.87,79.4,7.12,21.05,8.22,24.37,8.4,25.39,2.82,16.65,6.61,30.71,10.87,42.62,13.14,25.94,26.23,47.1,36.44,55.83,1.01,.87,1.29,1.11,5.56,13.08,.17,.39,.32,.77,.46,1.15,.71,2.06,1.38,3.97,1.99,5.74,.06,.17,.12,.34,.18,.51,1.61,4.55,3.2,9.09,4.38,12.49,.73,2.11,1.25,3.6,1.6,4.7,.16,.47,.26,.74,.3,.84h-.03c.55,1.88,.41,2.24,.05,3.21-.67,1.77-2.4,2.91-4.27,2.91-2.5-.03-3.58-1.66-4.22-3.17h-.01c-.02-.05-.04-.12-.07-.2-.13-.32-.24-.63-.34-.92-.31-.88-.79-2.25-1.46-4.18-1.06-3.04-2.61-7.49-4.76-13.68-.74-2.08-1.47-4.15-2.17-6.08-1.11-2.3-3.84-5.52-7.19-9.49-9-10.66-23.58-27.91-34.92-59.68-26.95-53.25-53.37-124.74-57.02-154.45-2.03-16.55-3.38-30.91-4.04-43.32-14.59-44.65-24.68-76.64-24.03-84.88,0-.11,.02-.22,.04-.33,1.58-10.3-1.37-28.04-4.22-45.19-4.03-24.26-7.54-45.39-1.58-55.68-.77-14.25-2.39-34.21-4.07-54.86-4.93-60.62-8.13-104.43-4.48-116.12,2.52-8.07,2.17-29.63,1.8-52.46-.55-34.45-1.24-77.33,6.66-104.46,3.23-11.08,4.62-20.22,5.96-29.07,2.95-19.39,5.49-36.14,25.24-64.08,1.73-2.45,3.36-6.27,5.24-10.69,5.22-12.25,12.38-29.03,30.94-38.26,3.41-1.7,6.76-3.04,10.08-4.08,7.62-9.56,22.96-21.41,41.46-31.61,17.19-9.47,51.15-25.17,85.37-23.81,30.82,1.18,73.59-53.83,83.26-81.83,.65-1.9,2.48-3.14,4.49-3.02,2,.11,3.7,1.53,4.15,3.48,.76,3.28,4,6.64,8.87,9.97,1.14-2.51,2.62-5.07,4.19-7.78,6.07-10.49,13.62-23.54,9.15-45.41-.92-4.51,1.27-25.95,3.21-39.69,2.96-21.01,5.76-30.51,8.15-34.96-8.24-2.75-15.35-13.55-19.25-20.63-12.3-22.31-22.6-61.53-6.96-78.86,8.96-9.93,16.4-15.11,22.95-15.9-4.28-20.52-4.75-44.05,8.89-77.19,4.1-9.96,8.48-14.86,10.83-17.49,.34-.38,.75-.84,.94-1.08,.28-.59,.68-1.12,1.19-1.55,8.4-7.06,14.89-13.57,21.16-19.88,15.81-15.89,29.47-29.62,63.96-40.38,34.35-10.71,62.83-16.44,87.08-17.5,40.02-1.77,66.39,9.54,78.36,33.57,15.26,30.64,17.08,57.08,4.88,70.72-.53,.59-1.1,1.18-1.72,1.75,16.99,17.9,16.13,35.45,15.35,51.22-.42,8.51-.82,16.55,1.26,24.65h0c1.5,6.92-3.62,66.51-6.35,73.49-.42,1.6-.55,8.66-.65,14.34-.34,19.33-.95,34.71-5.17,41.42-.31,.85-1.05,2.9-1.88,5.21-4.87,13.52-16.27,45.19-19.3,51.58-4.4,9.28-30.83,39.31-40.17,44.9-7.1,9.16-24.99,30.17-43.63,36.04l.04,.07q.67,1.13,3.75,24.75c.36,2.74,.7,5.37,.88,6.73,27.61,39.26,31.69,74.7,26.07,82.8-.14,.2-.29,.4-.44,.58,4.05,2.28,8.24,4.63,12.4,6.97,41.68,23.39,43.56,24.7,44.46,26.84,10.48,18.97,21.85,36.36,32.85,53.19,40.45,61.9,75.39,115.36,38.7,204.37-3.96,9.62-5.06,53.38-2.87,114.21,1.86,51.7,5.48,97.63,7.49,104.98,3.44,3.93,2.54,12.15,.5,27.33-1.66,12.38-3.93,29.33-.3,34.91,.31,.48,.52,1,.63,1.54,.48,.4,.88,.9,1.18,1.49,1.8,3.63,12.99,9.76,22.68,14.59,2.67-.51,5.47-1.28,8.34-2.36,11.69-4.4,39.17-19.95,41.99-69.15,.97-16.99,4.01-25.95,6.45-33.15,3.77-11.13,6.22-18.36-3.83-51.36-14.74-21.13-26.66-54.32-38.35-86.85-11.43-31.82-22.24-61.87-34.02-75.55-1.47-1.7-1.45-4.23,.04-5.92,1.49-1.69,3.99-2.01,5.87-.77,19.44,12.94,65.64,137.75,70.27,151.51,1.67,4.97,3.14,9.53,4.43,13.71,7.66,10.67,15.9,17.29,24.88,17.29,4.26,0,7.44,.36,10.51,.7,3.21,.36,6.25,.7,10.7,.7,6.37-.12,14.69,.56,24.34,1.35,23.22,1.91,52.11,4.28,70.06-3.44,8.19-3.52,23.65-4.62,43.23-6,40.21-2.85,95.28-6.75,113.68-34.77,.5-.76,1.7-2.89,3.23-5.58,18.65-32.94,38.06-63.27,53.58-62.19,3.58,.25,8.51,2.25,11.71,10.35,.54,1.36,.38,2.89-.42,4.12-3.44,5.25-6.66,9.67-9.26,13.23-2.16,2.96-4.53,6.21-5.67,8.24,5.02,.64,18.55-.52,29.86-1.5,.24-.09,.54-.21,.87-.34,1.3-.51,2.28-.89,3.11-1.1,.6-.15,1.23-.18,1.85-.08,15.62,2.55,38.75-14.97,59.17-30.43,7.93-6,15.43-11.68,22.31-16.08,21.5-13.77,33.79-12.59,40.31-9.18,5.89,3.08,9.29,9.15,9.59,17.08,.69,18.62-16.26,49.68-55.12,73.86-33.27,20.7-52.17,30.75-80.77,45.95-5.94,3.16-12.31,6.54-19.31,10.29-24.17,12.94-50.83,24.87-68.03,17.49-3.96,9.65-12.53,20.22-29.62,29.75-1.84,1.4-10.89,8.86-12.54,10.78-.19,.33-.42,.64-.69,.92-4.48,4.61-22.97,12.34-52.76,24.58-22.44,9.21-47.88,19.66-58.28,26.1-9.64,5.98-62.05,18.13-94.92,24.83-22.59,4.61-43.45,8.29-58.73,10.36-25.74,3.49-30.71,1.98-33.13-.19-.94-.56-4.27-2.12-7.23-3.51-3.14-1.47-6.23-2.94-9.22-4.39-11.37,1.41-21.81-1.04-27.67-6.99-.49-.5-.94-1.01-1.36-1.55-6.31,12.22-13.94,34.01-5.47,54.62q.41,1.02,.13,6.3c-5.35,99.59,1.13,130.43,5.46,139.96,.73,1.61,.75,3.3,.55,14.32-.41,22.23-1.36,74.31,12.11,101.27,2.39,4.79,5.06,8.3,7.41,11.39,4.47,5.87,8.69,11.42,4.97,20.14-.06,.14-.12,.28-.19,.42,18.06,9.85,25.95,41.92,24.11,98-1.49,45.22-8.92,95.7-13.84,129.11-1.46,9.91-2.72,18.47-3.46,24.49-3.37,27.37-3.92,69.33-4.51,113.76-1.06,80.35-2.26,171.36-20.03,215.14-.79,13.39-14.78,300.01-12.27,316.74,.59,1.55,.29,3.37-.9,4.66-17.96,19.46-21.35,108.67-24.07,180.36-1.4,36.88-2.72,71.75-5.72,95.89,.85,2.88,.65,8.45-.04,22.38-1.06,21.09-2.65,52.96,3.44,67.13,.43,1.01,.65,1.52,6.76,52.61,.54,4.52,.95,7.96,1.13,9.43,1.65,13.37,8.93,28.39,19.38,43.51,2.45,2.05,4.76,4.5,6.92,7.37,6.85,9.11,12.79,16.72,18.08,23.18,14.22,15.16,30.06,29.24,44.67,40.44,3.6,2.2,7.46,4.44,11.73,6.93,12.85,7.48,28.85,16.8,52.5,33.13,18.96,13.1,31.94,25.16,38.56,35.84,5.18,8.36,6.06,15.2,5.07,20.52,.03,2.96-.82,5.22-1.79,6.83-.53,4.18-.25,23.93-.12,33.62,.04,2.68,.07,4.75,.08,6.35l602.91,.82v9l-607.42-.83c-1.25,0-2.45-.53-3.3-1.45-.85-.92-1.28-2.16-1.18-3.4,.04-.76-.02-5.64-.09-10.37-.16-11.62-.22-19.54-.17-24.99-20.55,14.11-62.61,13.72-76.51,13.16-39.84-1.61-78.07-11-97.37-23.92-26.41-17.68-157.26-63.86-189.13-57.05-3.18,.68-4.01,1.67-4.19,1.95-6.62,10.58-8.64,18.86-6,24.6,5.6,12.16,31.71,16.1,59.37,20.27,20.91,3.15,42.53,6.41,60.04,13.64,68.31,28.22,136.07,41.36,213.26,41.36,3.04,0,4.21,2.13,4.49,2.78,.73,1.67,.39,3.62-.86,4.97-.83,.9-2.22,2.41-27.1,9.7-10.04,2.94-30.56,8.72-55.3,14.39-38,8.71-87.79,17.53-109.16,10.13-65.99-22.84-116.27-27.76-149.44-14.6-26.8,10.63-36.68,30.58-43.22,43.79-3.83,7.74-6.37,12.86-11.28,14.08-32.92,8.19-46.45,22.03-51.78,30.25-.38,1.8-.8,3.42-1.25,4.82-.76,2.4-2.19,6.88-6.23,6.88Zm-29.25-819.15l-1.82,7.33c-.1,.41-.26,.8-.47,1.16-15.05,26.15-15.35,140.15-15.59,231.76-.15,58.45-.3,113.66-3.88,142.77-12.86,104.62,11.5,182.32,33,250.87,16.67,53.16,32.46,103.5,27.66,157.61,9.52-8.51,24.53-17.32,47.3-23,1.27-.81,3.61-5.55,5.51-9.37,6.72-13.56,17.96-36.26,47.96-48.16,35.23-13.97,87.62-9.11,155.7,14.46,27.48,9.51,117.35-12.38,160.15-24.93-68.3-2.57-129.85-15.97-191.86-41.58-16.49-6.81-37.56-9.99-57.94-13.06-31.43-4.74-58.58-8.83-66.2-25.41-4.04-8.79-1.9-19.62,6.55-33.13,1.85-2.95,5.19-4.96,9.94-5.98,21.33-4.57,72.89,10.44,101.73,19.79,41.18,13.35,80.83,29.57,94.29,38.58,17.75,11.88,55.01,20.89,92.73,22.41,38.45,1.55,68.46-5.02,76.43-16.75,.81-1.19,1.39-2.47,1.73-3.81-.04-.3-.1-.62-.19-.98-4.71-19.7-61.85-61.16-73.07-67.03-8.88-4.64-19.6-11.68-30.96-20.37-15.36-9.43-26.76-18.45-45.55-41.19-9.23-9.85-17.83-20.17-25.11-30.55-17.41-13.56-44.43-3.89-75.17,7.11-38.23,13.68-81.56,29.18-120.78,6.04,.71,16.22,1.42,29.5,2.02,34.43,1.37,11.14,2.2,19.74,2.48,25.57,.32,6.73,.24,10.91-3.51,12.29-1.67,.61-4.23,.4-5.94-2.22-2.8-4.27-6.22-22.03-7.78-36.02-2.32-20.79-1.15-34.27,3.46-40.13-.75-17.85-1.48-38.33-2.1-55.72-.61-16.98-1.18-33.05-1.39-35.32-9.97-48.06-8.67-177-7.29-313.5,1.76-173.99,3.75-371.19-17.93-426.84-.32-.82-.39-1.71-.21-2.57,4.29-20.28-2.77-50.96-10.26-83.43-3.21-13.94-6.56-28.5-9.31-43.28-.61,3.14-1.28,6.61-2.03,10.44-8.54,43.93-21.45,110.32-23.06,123.39-13.36,108.41-29.71,223.82-69.25,338.32Zm-16.14,572.95c.14,2.35,.21,4.85,.21,7.48,0,30.19,14.05,67.32,26.45,100.07,7.06,18.66,13.42,35.46,16.85,49.55-4.89-30.31-14.39-60.59-24.7-93.47-6.36-20.27-12.96-41.32-18.8-63.63Zm-178.55-33.49c3.96,8.09,6.6,15,8.73,20.6,4.05,10.62,6.05,15.43,10.94,17.92,5.52,2.81,15.72,2.98,35.23,.58,19.16-2.35,39.35-12.73,57.17-21.89,22.17-11.39,41.32-21.24,54.16-13.4,2.73,1.66,4.99,4,6.8,7.06-10.93-48.55-17.03-103.27-9.03-168.4,3.51-28.58,3.66-83.53,3.81-141.7,.27-101.58,.54-206.6,16.47-235.65l1.72-6.93c.03-.13,.07-.26,.11-.39,39.3-113.74,55.58-228.69,68.89-336.67,1.65-13.38,14.59-79.96,23.16-124.01,2.87-14.74,5.45-28.05,6.78-35.07-2.6-21.87-2.96-43.75,1.25-64.47,13.85-68.08,44.39-94.53,71.33-117.86,24.33-21.07,45.34-39.26,47.15-85.35,.87-22.02,2.49-36.99,5.27-47.29-.79-1.37-1.65-2.74-2.6-4.08-3.52-5.01-14.73-9.42-29.7-13.3-62.65-.43-111.81-7.19-154.28-21.18-3.18-1.05-31.09-10.48-32.4-19.3-.29-1.96,.52-3.88,2.13-5,1.79-1.26,5.52-3.89,30.05,9.24,7.2,3.85,34.87,7.63,64.18,11.64,36.44,4.98,68.38,9.7,91.44,15.61,1.78,.01,3.56,.02,5.36,.02,9.47,0,17.46-2.89,22.51-8.14,4.63-4.82,6.82-11.45,6.49-19.71-.33-8.3-.33-14.32-.01-18.4,.23-2.94,.71-9.05,5.73-9.37,4.51-.27,6.83,3.82,10.45,18.28,1.9,7.57,3.69,16.65,4.01,20.24,.87,10.03,4.6,16.45,11.4,19.58,15.79-1.24,37.04-4.37,67.02-32.79,24.35-23.09,43.73-33.32,58.85-31.01,.19-.36,.35-.71,.5-1.05,1.59-3.74,.43-5.53-3.85-11.16-2.46-3.24-5.53-7.27-8.3-12.82-14.45-28.94-13.51-80.62-13.05-105.46,.08-4.63,.17-9.41,.04-10.9-10.13-23.19-8.89-90.84-6.05-143.7,.07-1.33,.14-2.55,.17-3.3-7.09-18.09-3.52-36.49,.77-48.82,2.71-7.76,6.62-15.55,10.09-20.56,.13-1.08,.35-2.18,.67-3.29-4-8.85-1.95-24.14,.04-38.96,1-7.45,2.35-17.58,1.48-20.3-.34-.32-.64-.7-.86-1.12-3.64-6.67-7.23-69.65-8.63-107.78-1.4-38.09-2.81-104.27,3.49-119.56,34.88-84.62,1.15-136.24-37.91-196.02-11.01-16.85-22.39-34.26-32.97-53.36-3.71-2.7-24.43-14.33-41.21-23.74-15.97-8.96-31.19-17.5-38.65-22.08-5.76,13.32-11.12,26.92-12.84,31.85-.8,4.73-2.94,16.1-11.02,15.76-5.53-.24-12.41-5.46-25.18-41.67-6.33-17.96-12.17-38.45-12.26-39.65,0-.05,0-.1-.01-.15-8-12.41-18.37-23.14-29.48-32.76-2.5-.33-5.01-.4-7.46-.23-25.4,11.7-30.81,21.01-33.48,25.6-1.27,2.18-2.58,4.44-5.45,5.13-3.45,.83-6.15-.91-14.18-6.08-2.73-1.76-6.11-3.93-10.36-6.57-9.89-3.4-21.29-8.99-34.1-16.77-6.69-4.06-12.32-7.86-15.86-10.33-2.13-1.48-3.69-2.62-4.62-3.31-1.81-1.33-4.83-3.56-2.87-7.05,1.19-2.12,3.84-2.91,6-1.79,26.95,14.04,44.17,24.17,55.49,31.17,7.27,2.41,14.09,3.64,19.58,2.79,4.04-.63,6.95-2.38,8.9-5.35,5.77-8.81,16.14-14.57,27.59-16.09-4.3-3.37-8.63-6.61-12.9-9.74-14.09-10.33-64.24-34.79-79.92-38.01-1.76-.36-3.13-1.73-3.5-3.49-.15-.72-.24-1.44-.28-2.15-4.21-2.64-7.74-5.39-10.39-8.29-6.93,14.78-19.24,32.64-32.63,47.01-11.36,12.18-33.37,32.33-54.66,32.33-.44,0-.87,0-1.31-.03-39.87-1.58-88.35,23.41-111.28,43.63,14.63-.92,29.32,2.89,46.28,7.28l4.06,1.05c33.58,8.63,57.83,35.18,72.1,78.9,11.7,35.86,14.77,77.23,16.14,109.25q.03,.64-2.34,13.97c-5.17,29.15-17.29,97.41-18.77,114.16-.85,9.56-1.73,22.67-2.74,37.84-3.28,48.85-7.73,115.26-16.38,140.56,0,.86-.26,1.73-.78,2.5-.09,.14-.19,.27-.3,.39-.54,1.38-1.08,2.75-1.62,4.11-5.53,13.94-10.31,25.98-5.41,40.08,.82,2.35-.42,4.91-2.77,5.73-2.34,.81-4.91-.42-5.73-2.77-1.89-5.43-2.6-10.61-2.52-15.61-.32,1.39-.91,2.73-1.75,4-7.2,10.81-31.91,15.39-68.79,21.13-16.93,2.64-32.93,5.13-41.27,8.39-7.5,2.93-18.01-.22-28.85-8.64-6.88-5.34-13.55-12.5-18.96-20.82,2.32,14.6,3.97,27.93,2.57,37.43-.28,5.43,7.06,29.78,15.03,54.72,1.05-15.11,4.08-25.34,9.14-31.78,7.04-8.95,17.07-10.12,26.78-11.25,8.63-1,17.55-2.04,26.11-8.09,21.3-15.05,36.72-20.17,48.52-16.12,15.71,5.4,21.64,25.01,29.15,49.85,4.8,15.88,10.24,33.87,19.18,50.59,25.84,48.37,33.16,99.49,40.24,148.92,7.77,54.26,15.11,105.52,44.75,154.27,12.15,19.99-20.99,75.73-47.22,107.11-15.42,18.44-36.85,39.24-51.37,33.65-7.96-3.07-11.52-12.56-10.87-29,1.39-35.17-.09-63.38-4.4-83.84-4.81-22.85-11.71-28.45-14.45-29.79-1.08-.53-4.37-2.14-9.7,2.35-18.95,15.94-39.44,90.27-12.82,181.64,12.44,42.72,8.18,148.45,6.36,193.6-.34,8.48-.64,15.89-.6,18,20.56,50.28,12.97,78.22,4.93,107.79-4.61,16.96-9.38,34.5-8.41,57.18,1.75,40.7-9.68,109.46-19.76,170.12-8.01,48.19-15.57,93.7-14.2,112.63,0,.11,.01,.22,.01,.33,0,16.66-3.65,22.04-6.87,26.78-2.73,4.01-5.08,7.48-4.44,21.1,2.51,53.64,.97,90.84-.66,130.23-1.06,25.75-2.16,52.38-2.16,84.97,0,19.1,8.28,105.92,15.58,182.53,10.34,108.41,12.48,134.13,12.15,141.41Zm346.37-54.51c1.47,.23,3.12,.8,4.94,1.87,35.59,21.03,76.83,6.27,113.21-6.74,25.3-9.05,49.62-17.75,69.07-12.96-6.82-11.94-11.44-23.69-12.78-34.56-.18-1.48-.59-4.93-1.14-9.47-1.68-14.04-5.55-46.46-6.26-50.53-6.72-16.22-5.14-47.69-3.99-70.73,.39-7.8,.83-16.59,.46-19-.45-.82-.64-1.78-.52-2.74,3.06-23.78,4.4-59.06,5.82-96.41,2.99-78.77,6.09-160.15,25-184.41-.49-5.23-.42-17.7,.58-50.18,.84-27.1,2.25-63.9,4.19-109.39,1.49-34.73,3.29-74.41,4.94-108.85,2.41-50.13,2.53-50.41,2.92-51.36,17.36-41.93,18.56-132.54,19.61-212.47,.59-44.68,1.15-86.88,4.57-114.74,.75-6.13,2.02-14.73,3.49-24.7,4.89-33.21,12.28-83.39,13.75-128.1,2.13-64.78-9.55-84.68-19.72-89.97-.08-.04-.17-.09-.25-.13-4.75,6.01-12.57,13.75-24.85,24.72-9.08,8.11-57.96,39.9-92.26,39.9-5,0-9.69-.68-13.91-2.2-.31,.02-.62,.04-.92,.07-11.03,.8-16.07,1.41-19.94,7.62-1.02,1.63-1.94,3.66-2.77,6.13,8.38,17.12,7.5,35.57,6.64,53.49-.59,12.42-1.16,24.15,1.37,34.88,.19,.83,.15,1.69-.12,2.49-12.51,36.48-38.49,55.57-63.61,74.04-39.17,28.79-76.17,55.98-69.08,145.97,.04,.49,.06,.75-.78,5.3,2.82,22.88,8.11,45.85,13.06,67.35,7.89,34.24,14.72,63.9,10.55,86,21.8,58.73,19.91,246.92,18.07,428.95-1.37,136.06-2.67,264.58,7.11,311.64h-.01c.25,1.42,.36,4.23,.64,11.21,.25,6.43,.57,15.38,.94,25.55,.56,15.69,1.25,35.06,1.97,52.48Zm69.66-1282.2c-1.1,8.32-1.87,18.69-2.37,31.43-1.97,49.98-25.42,70.29-50.25,91.8-16.12,13.96-33.58,29.08-47.65,54.26,12.65-14.82,27.83-25.97,42.82-36.99,24.82-18.24,48.28-35.48,60.02-68.51-2.48-11.6-1.89-24.03-1.31-36.08,.6-12.49,1.17-24.55-1.25-35.91Zm-16.7-35.95c6.69,2.82,11.64,5.93,14.55,9.42,.29-.52,.58-1.02,.88-1.5,4.42-7.09,10.26-9.64,17.02-10.81-3.7-4.38-6.66-10.76-7.47-20.05-.21-2.43-1.1-7.2-2.24-12.33,0,.15,.01,.29,.02,.44,.42,10.65-2.69,19.75-9,26.31-3.66,3.8-8.35,6.68-13.77,8.52Zm164.51-59.03c-11.69,1.26-27.29,10.94-45.95,28.63-9.06,8.59-17.47,15.04-25.23,19.89,21.79-8.79,43.08-22.04,50.77-28.91,9.23-8.24,15.88-14.62,20.41-19.61Zm-281.67,45.16c7.59,1.25,15.42,2.33,23.51,3.25-6.82-.97-13.43-1.87-19.59-2.71-1.32-.18-2.63-.36-3.92-.54Zm-344.55-310.5c.13,1.13,.27,2.26,.41,3.41,2.54,20.7,17.15,63.87,35.05,105.94-1.54-4.62-3.86-11.48-6.26-18.57-9.08-26.85-22.81-67.42-26.06-80.04-.66-2.56-1.74-6.23-3.14-10.74Zm667.62-79.72c5.3,1.66,36.78-2.08,87.57-12.56,43.48-8.97,82.52-19.08,88.88-23.03,11.04-6.84,35.73-16.98,59.61-26.78,20.45-8.4,45.86-18.83,49.62-22.42,3.55-4.67,15.1-13.22,15.22-13.29,13.98-7.76,23.02-17.08,26.53-27.29-6.17-6.55-8.75-17.17-7.68-31.67,.18-2.48,1.97-4.41,4.34-4.69,7.06-.86,11.84,13.63,12.04,14.25,1.33,4.11,2.71,10.78,1.43,18.64,15.32,7.97,48.57-9.84,61.29-16.65,7.01-3.75,13.38-7.14,19.33-10.3,28.44-15.12,47.23-25.1,80.24-45.64,34.22-21.29,51.5-49.26,50.88-65.88-.17-4.7-1.78-7.88-4.77-9.44-2.91-1.52-11.77-3.71-31.29,8.78-6.59,4.22-13.94,9.79-21.73,15.68-20.21,15.3-42.92,32.48-61.57,32.49-1.13,0-2.24-.06-3.34-.19-.45,.17-.99,.38-1.34,.52-1.43,.56-2.08,.82-2.92,.89-28.41,2.46-36.74,2.92-39.9-2.67-2.69-4.76,.82-9.57,7.18-18.29,2.18-2.99,4.82-6.6,7.62-10.78-.78-1.39-1.79-2.55-3.01-2.64-1.66-.12-8.19,1.09-22.71,21.42-9.16,12.82-17.78,28.05-22.41,36.22-1.73,3.06-2.88,5.08-3.54,6.09-20.84,31.74-78.48,35.82-120.56,38.8-17.99,1.27-33.52,2.37-40.31,5.29-20.01,8.6-50.14,6.13-74.35,4.15-9.41-.77-17.53-1.44-23.52-1.32-5.05,0-8.48-.39-11.8-.76-2.96-.33-5.75-.65-9.51-.65-7.14,0-13.67-2.73-19.73-7.57,5.01,21.58,2.49,29-1.03,39.39-2.38,7.03-5.09,15.01-5.99,30.78-3.07,53.65-33.52,71.49-47.18,76.82,5.64,2.65,7.4,3.51,8.4,4.31Zm-700.81-142.11c.36,7.89,.42,13.81,.02,17.02-2.85,23.14,12.24,46.41,27.47,58.25,7.91,6.14,15.78,9.04,20.05,7.37,9.26-3.61,25.73-6.18,43.16-8.9,24.12-3.76,57.15-8.91,62.69-17.23,.53-.79,.65-1.46,.45-2.3-1.92-7.8-2.86-16.5-3.77-24.92-.75-6.96-1.52-13.19-2.55-18.6-12.92-6.62-24.61-11.28-34.79-15.35-6.18-2.47-11.86-4.74-16.99-7.11-17.16,1.31-32.15,3.52-46.83,5.69-14.89,2.2-30.28,4.47-47.49,5.72-.57,.04-1.02,.16-1.42,.38Zm157.56,16.1c.57,4.06,1.02,8.18,1.46,12.21,.88,8.13,1.79,16.53,3.56,23.75,.13,.52,.22,1.05,.28,1.57,.91-9.42,4.41-18.24,7.84-26.87,.28-.7,.56-1.41,.84-2.11-4.78-3.14-9.44-5.97-13.97-8.54Zm-2.11-11.44c6.11,3.25,12.48,6.94,19.1,11.21,7.44-27.08,11.71-90.73,14.6-133.96,1.02-15.22,1.9-28.37,2.76-38.03,1.52-17.13,13.68-85.67,18.87-114.93,1.09-6.12,1.97-11.08,2.19-12.44-1.36-31.38-4.38-71.75-15.69-106.42-13.24-40.61-35.38-65.16-65.78-72.98l-4.07-1.05c-20.99-5.43-37.24-9.64-53.88-5.35-1.05,1.62-1.41,2.65-1.54,3.17,28.68,14.29,45.38,29.98,51.11,47.97,7.24,22.71-4.39,44.36-14.65,63.46-7.71,14.36-15,27.92-11.88,38.22,37.35,123.31,25.2,141.23,6.81,168.35-10.66,15.72-22.74,33.54-28.31,78.87-3.61,29.4,4.13,39.47,22.32,48.31,9.14-.65,18.89-1.04,29.54-1.04,17.68,0,24.88,11.8,28.48,26.63Zm-38.91-17.5c8.31,3.32,17.58,7.04,27.71,11.86-3.25-7.74-8.35-11.99-17.27-11.99-3.58,0-7.05,.05-10.44,.13Zm-53.57-452.56c-.27,.13-.55,.26-.82,.4-15.59,7.75-21.73,22.16-26.67,33.74-2.09,4.9-3.89,9.12-6.17,12.35-18.52,26.21-20.92,41.98-23.69,60.24-1.39,9.14-2.82,18.58-6.22,30.23-7.52,25.83-6.84,67.95-6.3,101.8,.41,25.61,.74,45.84-2.21,55.29-3.41,10.93,1.18,67.37,4.86,112.71,1.51,18.59,2.91,35.86,3.75,49.44,.42-.07,.84-.12,1.28-.15,16.87-1.23,31.42-3.37,46.83-5.65,11.04-1.63,22.25-3.28,34.42-4.57-2.47-1.8-4.69-3.77-6.66-5.96-8.93-9.95-11.77-23.77-9.18-44.81,5.83-47.49,19.12-67.09,29.8-82.83,16.94-24.99,28.14-41.49-7.97-160.69-4.21-13.88,3.94-29.04,12.56-45.09,9.87-18.38,20.09-37.39,14-56.47-4.99-15.63-20.32-29.64-46.89-42.81-2.96-1.47-4.61-4.04-4.71-7.17Zm376.35-37.01c7.16,11.51,12.37,24.23,14.7,38.57,1.22,7.49,6.81,17.79,11.11,23.6-.05-.24-.1-.5-.15-.76-2.93-14.36,2.01-63.01,9.13-97.89,.05-8.34-.36-16.63-1.35-28.82-2.31-1.84-7.9-5.75-14.5-10.25-3.75-1.21-8.4-3.62-14.96-8.55-4.16-3.12-6.84-4.96-9.21-6.58-2.79-1.91-5.19-3.56-8.99-6.57-.17-.1-.32-.18-.45-.24-22.09-11.42-59.88-58.13-72.18-84.69-17.61-23.76-23.51-34.6-25.44-39.87-4.77,13.91-9.91,59.81-9.05,65.56,5.15,25.17-3.72,40.48-10.19,51.67-1.73,2.98-3.26,5.63-4.18,7.92,14,7.46,34.25,14.61,50.79,20.46,35.25,12.45,55.21,20.04,55.61,31.21,.1,2.92-1.18,5.34-2.99,7.29,.17,.04,.33,.08,.5,.12,17.6,4.43,29.36,18.48,31.8,37.83Zm35.56,19.5c-1.66,16.59-2.32,31.03-1.37,38.36,2.76-7.09,6.83-17.16,10.4-25.44,.15-.34,.29-.68,.44-1.01-4.65-3.86-7.62-7.78-9.47-11.91Zm20.69,8.91c2.99,1.87,7.94,4.76,13.93,8.18-2.85-7.9-4.23-18.98-4.95-26.24-2.52,4.25-5.71,10.81-8.99,18.06Zm-12.47-64.22c-.08,9.09-.67,18.23-1.62,31.93-.89,12.7-.5,19.77,6.71,26.68,10.98-24,14.94-25.96,18.79-25.81,.07,0,.14,0,.22,.01-4.12-9.64-9.98-20.51-18.23-32.09q-.67-.91-1.84-9.89c-.2-1.55-.44-3.37-.69-5.31-1.14,4.31-2.25,9.2-3.33,14.47Zm-102.07-21.17c.6,.41,1.16,.81,1.68,1.19,5.61,4.11,11.17,8.34,16.58,12.73,1.54-1.16,1.73-1.85,1.73-1.86,0-.03-.24-3.03-13.17-9.08-2.11-.99-4.39-1.98-6.82-2.98Zm100.13-12.47c.34,.61,.38,1.11,.43,1.72,.07,.88,.14,1.75,.21,2.59,.64-1.63,1.28-3.06,1.92-4.27-.86,.03-1.71,.02-2.56-.04Zm-19-14.34c1.53,.38,2.73,.44,3.83,.5,2.34,.12,5,.26,8.34,2.4,15,9.56,39-11.45,55-32.36,.54-.7,1.27-1.23,2.1-1.52,5.07-2.3,32.26-32.09,36.48-41,2.84-5.99,14.56-38.52,18.96-50.77q2.24-6.22,2.57-6.72s.05-.08,.08-.12c3.3-4.62,3.67-25.62,3.87-36.9,.2-11.22,.35-15.35,1.33-17.6,2.25-5.66,6.68-61.99,5.95-67.85-2.41-9.41-1.96-18.51-1.53-27.31,.8-16.14,1.5-30.38-13.98-45.75-9.97,4.51-26.16,5.53-52.39-4.07-2.61-.96-5.24-1.92-7.88-2.9-13.53-4.99-27.16-10.01-40.49-13.98-16.64-2.63-31.32-5.29-40.15-7.73-30-1.44-55.6,10.31-70.83,51.29-2.72,7.31-.67,16.21,1.3,24.82,2.44,10.61,4.96,21.58-1.41,30.26-5.43,7.41-16.18,11.51-33.83,12.9-.27,.02-.54,.02-.81,0,.92,3.93,1.75,8.08,2.6,12.28,.25,1.23,.49,2.46,.74,3.68,4.68,23.03,1.32,42.18-2.32,54.18-.58,1.91-1.19,3.7-1.79,5.36-.77,2.64-1.7,4.91-2.78,6.81-.58,1.27-1.12,2.38-1.6,3.32-.37,.73-.71,1.38-1.03,1.97,1.06,.48,1.9,1.36,2.33,2.44,.53,.87,2.37,3.5,4.15,6.05,6.27,8.96,16.76,23.97,20.15,32.63,.33,.85,.71,1.74,1.11,2.65,4.15,5.59,8.92,11.86,14.4,18.89,20.6,26.42,42.79,52.52,49.44,58.18,2.44,2.07,4.43,3.71,6.13,5.07,4.64,2.74,16.1,10.25,26.19,17.02,2.09,1.4,4,2.69,5.75,3.88Zm-143.1-252.09c-2.8,0-8.26,2.16-18.06,13.02-10.99,12.18-4.65,45.25,8.16,68.48,7.12,12.92,13.22,17.01,15.57,16.6,.62-.11,1.35-.65,2.1-1.72,.88-1.94,1.84-4.25,2.78-6.88,.36-1.39,.69-2.98,.98-4.77,4.9-29.99-1.29-50.79-7.27-70.9-1.35-4.55-2.72-9.13-3.95-13.83-.1,0-.21,0-.32,0Zm25.98,.78c-.34,.66-.99,2.54-1.27,7.44,11.58-1.42,19.08-4.36,22.3-8.75,3.93-5.36,2.06-13.49-.11-22.92-.79-3.42-1.61-7.01-2.17-10.66-.04,22.87-2.82,30.37-6.93,33.76-3.66,3.02-7.77,2.04-10.23,1.46-.48-.11-1.15-.27-1.6-.33Zm-18-7.18c3.43,2.48,5.94,6.55,7.94,11.6,.6-6.13,2.05-9.7,4.6-11.72,3.2-2.53,6.77-1.69,9.14-1.13,.77,.18,2.05,.48,2.41,.37,.49-.28,4.87-3.89,3.33-42.99-.66-16.86,12.09-38.08,31.02-51.59,18.36-13.11,39.14-16.65,57.02-9.72,.95,.37,2.11,.75,3.45,1.14,13.05,.77,26.6,3.73,40.31,7.77,16.43,2.59,34.68,5.16,50.31,7.35,39.83,5.6,43.37,6.32,45.38,7.82,1.51,1.13,2.93,2.27,4.28,3.4,.57-.49,1.1-1.02,1.6-1.58,9.51-10.63,7.13-33.89-6.22-60.71-16.84-33.83-70.34-37.8-154.7-11.49-32.36,10.09-44.67,22.47-60.26,38.13-5.96,5.99-12.69,12.76-21.1,19.87-.49,.75-1.12,1.46-1.85,2.28-2.13,2.39-5.7,6.38-9.21,14.92-13.7,33.32-12.36,55.69-7.43,76.27Zm69.94-92.13c-2.4,1.36-4.5,2.74-6.27,4.01-16.33,11.66-27.79,30.13-27.25,43.91,.04,.94,.07,1.86,.1,2.76,.3-1.88,.77-3.74,1.45-5.57,7.7-20.71,18.28-35.69,31.98-45.11Zm134.9,11.65c1.34,.49,2.67,.98,4,1.47,17.7,6.48,31.78,8.41,41.56,5.81-.16-.12-.32-.24-.48-.37-3.63-1.08-22.95-3.8-41.65-6.43-1.14-.16-2.28-.32-3.44-.48Z"/></svg>