<svg x="0px" y="0px" viewBox="0 0 512 510" id="mysvg">
  
  <style>
	  .st0 { fill:url( #gradient ); }
  </style>

  <defs>
    <radialGradient gradientTransform="rotate( 0, 0.5, 0.5 )" id="gradient" gradientUnits="objectBoundingBox">
	  <stop  offset="0.4" style="stop-color:#F15A24"/>
	  <stop  offset="0.6" style="stop-color:"/>
    </radialGradient>
  </defs>
  
  <path class="st0" d="M256,509.5c-68.25,0-132.41-26.47-180.67-74.54C27.08,386.89,.5,322.98,.5,255S27.08,123.11,75.33,75.04C123.59,26.97,187.75,.5,256,.5s132.41,26.47,180.67,74.54c48.26,48.07,74.83,111.98,74.83,179.96s-26.58,131.89-74.83,179.96c-48.26,48.07-112.42,74.54-180.67,74.54Z"/><path d="M256,1c34.43,0,67.82,6.72,99.26,19.96,30.37,12.79,57.64,31.11,81.06,54.44,23.42,23.33,41.81,50.49,54.65,80.74,13.3,31.31,20.04,64.58,20.04,98.87s-6.74,67.55-20.04,98.87c-12.84,30.25-31.23,57.41-54.65,80.74-23.42,23.33-50.69,41.64-81.06,54.44-31.44,13.24-64.83,19.96-99.26,19.96s-67.82-6.72-99.26-19.96c-30.37-12.79-57.64-31.11-81.06-54.44-23.42-23.33-41.81-50.49-54.65-80.74C7.74,322.55,1,289.29,1,255s6.74-67.55,20.04-98.87c12.84-30.25,31.23-57.41,54.65-80.74,23.42-23.33,50.69-41.64,81.06-54.44C188.18,7.72,221.57,1,256,1m0-1C114.62,0,0,114.17,0,255s114.62,255,256,255,256-114.17,256-255S397.38,0,256,0h0Z"/>

</svg>